<mxfile host="app.diagrams.net" modified="2024-07-23T17:36:47.276Z" agent="Mozilla/5.0 (Macintosh; Intel Mac OS X 10_15_7) AppleWebKit/537.36 (KHTML, like Gecko) Chrome/126.0.0.0 Safari/537.36" version="24.4.6" etag="wNTQcna0SrlRTmOKJ_9y" type="github">
  <diagram name="PÃ¡gina-1" id="nQyCqohB0o9WFyynkMvN">
    <mxGraphModel>
      <root>
        <mxCell id="0" />
        <mxCell id="1" parent="0" />
      </root>
    </mxGraphModel>
  </diagram>
</mxfile>
